<svg width="200" height="45" viewBox="0 0 200 45" fill="none" xmlns="http://www.w3.org/2000/svg">
<path d="M46.9539 6.74862L46.9216 8.82702C46.7189 8.59041 46.4979 8.36993 46.2602 8.16828C45.8402 7.81793 45.385 7.51142 44.9024 7.2541C44.3955 6.97152 43.8529 6.7591 43.2891 6.62225C42.6893 6.47275 42.0735 6.39801 41.4554 6.39908C40.0064 6.38026 38.5825 6.7747 37.3497 7.53642C36.1416 8.28201 35.1583 9.34137 34.505 10.6016C33.7938 11.9645 33.4367 13.4847 33.4671 15.0219C33.4373 16.5601 33.7949 18.0814 34.5077 19.4449C35.1901 20.675 36.1771 21.7091 37.3739 22.4482C38.6456 23.1978 40.1003 23.5805 41.5764 23.5533C42.4879 23.5519 43.3899 23.3691 44.2302 23.0155C45.0357 22.6765 45.7665 22.182 46.3812 21.5609C46.5527 21.3819 46.7111 21.1904 46.8544 20.9882V22.5504C46.8875 23.4589 46.6925 24.361 46.2871 25.1746C45.9168 25.8818 45.3137 26.4394 44.5797 26.7529C43.7053 27.139 42.7549 27.3226 41.7996 27.2907C41.1736 27.2885 40.5496 27.2248 39.9362 27.0997C39.3407 26.979 38.7588 26.7989 38.1993 26.562C37.6764 26.3485 37.1787 26.078 36.7151 25.7554L35.325 28.6296C36.2096 29.3048 37.2128 29.8081 38.2827 30.1138C39.4896 30.4881 40.7456 30.6801 42.0093 30.6839C43.2544 30.7035 44.4937 30.5107 45.674 30.1138C46.7046 29.7839 47.6457 29.222 48.4246 28.471C49.1936 27.7391 49.7873 26.843 50.1616 25.8495C50.5807 24.7076 50.784 23.4976 50.7612 22.2815V6.77013L46.9539 6.74862ZM44.6792 19.5739C43.9266 20.0262 43.0616 20.2564 42.184 20.2381C41.3064 20.2561 40.4415 20.0259 39.6889 19.5739C38.9675 19.1252 38.3792 18.4923 37.9842 17.7402C37.5747 16.9037 37.3682 15.9826 37.3819 15.0515C37.3637 14.1198 37.5704 13.1976 37.9842 12.3627C38.3714 11.5975 38.961 10.953 39.6889 10.4994C40.4342 10.0275 41.3021 9.78556 42.184 9.80304C43.0616 9.78475 43.9266 10.0149 44.6792 10.4672C45.4027 10.9183 45.9835 11.5652 46.3543 12.3331C46.7901 13.1718 47.0074 14.1066 46.9861 15.0515C47.006 15.9829 46.8004 16.9054 46.3866 17.7402C46.0037 18.5014 45.4114 19.1376 44.6792 19.5739Z" fill="#003C46"/>
<path d="M63.2769 6.49602C62.944 6.42988 62.6053 6.39761 62.2659 6.39923C61.4386 6.40138 60.625 6.60814 59.8972 7.00151C59.1454 7.39191 58.4788 7.92859 57.9371 8.5798C57.6736 8.89385 57.4421 9.23344 57.2461 9.59346L57.2111 6.74876H53.3877V23.3975H57.3052V14.5246C57.2969 13.985 57.3937 13.4489 57.5902 12.9463C57.7911 12.4745 58.0804 12.0456 58.4425 11.6826C58.798 11.3247 59.2225 11.0432 59.6901 10.8545C60.1685 10.6456 60.6847 10.5386 61.2066 10.5399C61.5475 10.5396 61.8871 10.5821 62.2175 10.6663C62.5138 10.7346 62.8002 10.8402 63.0699 10.9809L64.1104 6.7165C63.8405 6.61621 63.5611 6.54227 63.2769 6.49602Z" fill="#003C46"/>
<path d="M75.9411 6.74862V9.10665C75.619 8.61031 75.2248 8.16425 74.7715 7.78379C74.2297 7.33504 73.6086 6.99222 72.9405 6.77282C72.1995 6.51255 71.4187 6.3843 70.6335 6.39371C69.248 6.37515 67.8867 6.76018 66.716 7.50147C65.5411 8.2562 64.5914 9.31422 63.9681 10.564C63.2758 11.9462 62.9289 13.4761 62.9572 15.0219C62.9292 16.5669 63.2763 18.0954 63.9681 19.4772C64.5874 20.7202 65.5126 21.7852 66.6569 22.5719C67.7531 23.3242 69.0542 23.7213 70.3835 23.7092C71.1474 23.7157 71.9064 23.5872 72.6259 23.3301C73.3102 23.0935 73.959 22.7642 74.5537 22.3514C75.0686 21.9876 75.5263 21.5488 75.9115 21.0501V23.3947H79.8559V6.74593L75.9411 6.74862ZM73.8547 19.6062C73.1351 20.0544 72.3011 20.284 71.4536 20.2676C70.6061 20.2832 69.7723 20.0536 69.0526 19.6062C68.3691 19.1505 67.8233 18.5162 67.4743 17.7725C67.0817 16.9097 66.8878 15.9697 66.9069 15.0219C66.8921 14.0929 67.0908 13.1731 67.4877 12.3331C67.8359 11.5897 68.382 10.9562 69.066 10.5021C69.785 10.0526 70.6193 9.82186 71.467 9.83799C72.3151 9.82132 73.1494 10.052 73.8681 10.5021C74.5693 10.9463 75.1289 11.5816 75.4814 12.3331C75.8954 13.168 76.1019 14.0902 76.0836 15.0219C76.1016 15.9724 75.8952 16.914 75.4814 17.7698C75.1251 18.5243 74.5607 19.1615 73.8547 19.6062Z" fill="#003C46"/>
<path d="M94.4206 0.0188212V8.67121C94.1377 8.35367 93.8202 8.06866 93.4742 7.82157C92.8606 7.36717 92.1779 7.01494 91.4522 6.77833C90.7096 6.52452 89.9298 6.39653 89.1453 6.39922C87.7361 6.38094 86.3525 6.77645 85.1659 7.53656C83.9907 8.29237 83.0413 9.35119 82.418 10.6017C81.7259 11.9832 81.3791 13.512 81.407 15.057C81.3772 16.6116 81.7241 18.1504 82.418 19.5418C83.0711 20.7819 84.0275 21.8364 85.1982 22.607C86.3917 23.348 87.7727 23.7314 89.1775 23.7121C89.929 23.7105 90.676 23.5908 91.3904 23.3572C92.0773 23.1291 92.7264 22.7992 93.3155 22.3784C93.7608 22.0569 94.1582 21.674 94.4959 21.2411L94.547 23.3921H98.3112V0L94.4206 0.0188212ZM93.9474 17.8372C93.5935 18.6051 93.0353 19.2606 92.3341 19.7327C91.6219 20.2006 90.7849 20.4423 89.9331 20.4264C89.081 20.442 88.2443 20.2003 87.532 19.7327C86.8273 19.2563 86.2608 18.6024 85.8892 17.8372C85.4956 16.9641 85.3017 16.0145 85.3219 15.057C85.3033 14.11 85.4972 13.1711 85.8892 12.3091C86.2498 11.5401 86.819 10.8881 87.532 10.427C88.2435 9.95751 89.0807 9.71472 89.9331 9.73058C90.7854 9.71418 91.6227 9.95724 92.3341 10.427C93.044 10.8835 93.6048 11.5377 93.9474 12.3091C94.3604 13.1652 94.5658 14.1065 94.547 15.057C94.5674 16.0179 94.362 16.97 93.9474 17.8372Z" fill="#003C46"/>
<path d="M115.906 14.5813C115.938 13.4724 115.755 12.3676 115.369 11.3279C115.038 10.3594 114.498 9.47562 113.788 8.73863C113.092 8.00004 112.254 7.40932 111.325 7.0017C110.359 6.57661 109.315 6.36124 108.26 6.36985C107.08 6.35775 105.909 6.58253 104.818 7.03128C103.8 7.44185 102.883 8.06752 102.129 8.86501C101.375 9.67002 100.785 10.6143 100.392 11.6452C99.9561 12.7836 99.7392 13.9941 99.7523 15.2131C99.7252 16.7498 100.106 18.2657 100.857 19.6066C101.613 20.8678 102.693 21.9038 103.984 22.6072C105.413 23.3638 107.011 23.744 108.628 23.7123C109.428 23.7096 110.224 23.6039 110.997 23.3977C111.782 23.1912 112.544 22.9046 113.271 22.5427C113.983 22.181 114.643 21.7245 115.231 21.1848L113.304 18.4961C112.68 19.065 111.964 19.5251 111.188 19.8566C110.5 20.1153 109.771 20.2441 109.037 20.2357C108.021 20.2567 107.015 20.0405 106.098 19.6039C105.293 19.175 104.625 18.5284 104.17 17.7379C103.867 17.1786 103.668 16.5693 103.581 15.9391H115.885L115.906 14.5813ZM105.638 10.4137C106.445 9.99051 107.349 9.78321 108.26 9.81145C108.898 9.80284 109.529 9.95529 110.093 10.2551C110.649 10.5199 111.128 10.9224 111.483 11.4247C111.85 11.9267 112.071 12.5204 112.121 13.1401V13.2988H103.681C103.759 12.9054 103.887 12.5233 104.06 12.1614C104.389 11.4271 104.941 10.8152 105.638 10.4137Z" fill="#003C46"/>
<path d="M123.024 23.712C121.662 23.7327 120.311 23.4862 119.044 22.9861C117.933 22.5155 116.955 21.7764 116.2 20.8351L118.727 18.6545C119.303 19.3288 120.028 19.8591 120.846 20.2032C121.628 20.5192 122.465 20.6799 123.309 20.6764C123.63 20.681 123.949 20.6385 124.258 20.5501C124.533 20.4761 124.79 20.3471 125.013 20.171C125.212 20.019 125.374 19.8255 125.489 19.6036C125.615 19.3708 125.68 19.11 125.678 18.8454C125.686 18.6142 125.639 18.3846 125.54 18.1754C125.442 17.9662 125.294 17.7839 125.11 17.6435C124.793 17.4462 124.454 17.2873 124.099 17.1703C123.531 16.9649 122.95 16.796 122.36 16.6648C121.38 16.4258 120.428 16.087 119.518 15.6539C118.852 15.3237 118.252 14.8744 117.748 14.3283C117.397 13.929 117.123 13.4676 116.942 12.9678C116.769 12.4376 116.683 11.8826 116.689 11.325C116.677 10.6326 116.84 9.94834 117.162 9.3353C117.498 8.72281 117.955 8.18559 118.507 7.75701C119.102 7.30046 119.777 6.95764 120.496 6.74604C121.264 6.51265 122.063 6.39489 122.865 6.3965C123.682 6.39569 124.496 6.50244 125.285 6.71377C126.062 6.91408 126.807 7.22275 127.498 7.63064C128.164 7.98716 128.763 8.4577 129.267 9.02072L127.116 11.3895C126.71 11.0069 126.265 10.6681 125.788 10.3785C125.343 10.0919 124.867 9.85826 124.368 9.68215C123.936 9.50469 123.475 9.40897 123.008 9.39983C122.645 9.39419 122.284 9.43667 121.932 9.5262C121.649 9.57406 121.38 9.68135 121.142 9.84079C120.931 9.98867 120.758 10.1839 120.636 10.4108C120.525 10.6477 120.471 10.9074 120.478 11.169C120.499 11.4202 120.564 11.6656 120.668 11.895C120.797 12.1082 120.969 12.2916 121.174 12.4327C121.508 12.629 121.856 12.7979 122.217 12.9382C122.801 13.1652 123.403 13.3448 124.016 13.476C124.907 13.6999 125.774 14.007 126.608 14.3928C127.225 14.6738 127.783 15.0709 128.251 15.5624C128.641 15.9262 128.934 16.382 129.103 16.888C129.277 17.429 129.363 17.9947 129.356 18.5631C129.37 19.5109 129.077 20.4379 128.522 21.2061C127.943 22.0106 127.157 22.6435 126.248 23.0372C125.236 23.4972 124.135 23.7279 123.024 23.712Z" fill="#003C46"/>
<path d="M138.054 23.7119C136.575 23.7332 135.12 23.3393 133.854 22.5746C132.616 21.8231 131.602 20.7546 130.915 19.4799C130.186 18.121 129.816 16.5986 129.839 15.0569C129.815 13.5149 130.186 11.9925 130.915 10.6339C131.601 9.3578 132.615 8.28821 133.854 7.53644C135.12 6.77176 136.575 6.37759 138.054 6.3991C139.459 6.37974 140.851 6.67174 142.13 7.25412C143.28 7.76229 144.265 8.5829 144.972 9.62291L142.821 12.2122C142.487 11.7516 142.082 11.3469 141.622 11.013C141.146 10.6597 140.625 10.3731 140.073 10.1607C139.55 9.95308 138.993 9.84553 138.43 9.84338C137.549 9.82994 136.682 10.0719 135.935 10.5398C135.207 10.9934 134.617 11.6379 134.23 12.4031C133.799 13.2202 133.582 14.1333 133.598 15.0569C133.582 15.9804 133.799 16.8935 134.23 17.7107C134.653 18.471 135.262 19.1118 135.999 19.574C136.737 20.0367 137.592 20.2776 138.462 20.2677C138.999 20.2698 139.532 20.1846 140.041 20.0149C140.571 19.8243 141.072 19.5589 141.527 19.2271C142.014 18.8666 142.449 18.4415 142.821 17.9634L144.972 20.5849C144.183 21.5695 143.168 22.3496 142.014 22.8596C140.771 23.4277 139.42 23.7187 138.054 23.7119Z" fill="#003C46"/>
<path d="M153.675 23.7121C152.121 23.7381 150.587 23.3572 149.226 22.607C147.938 21.866 146.871 20.7972 146.131 19.5096C145.359 18.1542 144.966 16.6162 144.994 15.057C144.967 13.4967 145.359 11.9582 146.131 10.6017C146.866 9.3192 147.936 8.25983 149.226 7.53656C150.582 6.76516 152.121 6.3726 153.681 6.39922C155.228 6.3761 156.754 6.76892 158.098 7.53656C159.385 8.25418 160.446 9.31543 161.164 10.6017C161.935 11.9582 162.328 13.4967 162.301 15.057C162.328 16.6162 161.935 18.1542 161.164 19.5096C160.442 20.8012 159.382 21.8719 158.098 22.607C156.746 23.3555 155.221 23.7365 153.675 23.7121ZM153.675 20.2678C154.527 20.2836 155.364 20.0419 156.077 19.5741C156.79 19.1124 157.368 18.4693 157.752 17.7108C158.18 16.8939 158.387 15.9787 158.351 15.057C158.39 14.1237 158.183 13.1966 157.752 12.3682C157.374 11.6143 156.794 10.98 156.077 10.5372C155.365 10.0672 154.528 9.82441 153.675 9.84082C152.805 9.8306 151.949 10.0723 151.213 10.5372C150.488 10.9862 149.907 11.6326 149.537 12.4005C149.127 13.2241 148.921 14.1342 148.938 15.0543C148.921 15.9741 149.127 16.8845 149.537 17.7081C149.92 18.4674 150.498 19.1105 151.213 19.5714C151.95 20.0352 152.805 20.2769 153.675 20.2678Z" fill="#003C46"/>
<path d="M179.657 10.6018C179.046 9.36145 178.107 8.31231 176.941 7.56887C175.772 6.82328 174.41 6.43879 173.024 6.46379C172.101 6.46272 171.186 6.64555 170.335 7.00154C169.533 7.33199 168.803 7.81408 168.184 8.4212C168.027 8.57338 167.881 8.73578 167.746 8.90786L167.711 6.75687H163.893V30.3479H167.81V21.4294C167.872 21.4966 167.934 21.5638 168.001 21.631C168.662 22.2605 169.433 22.7635 170.276 23.1152C171.165 23.4906 172.12 23.6833 173.085 23.6825C174.451 23.7019 175.793 23.3174 176.941 22.5775C178.103 21.816 179.041 20.7577 179.657 19.5123C180.349 18.1316 180.696 16.6039 180.668 15.0597C180.701 13.5134 180.354 11.9824 179.657 10.6018ZM176.277 17.7404C175.922 18.4911 175.363 19.1267 174.664 19.5741C173.955 20.0197 173.132 20.2503 172.295 20.2382C171.441 20.2541 170.601 20.0234 169.875 19.5741C169.186 19.1152 168.629 18.4825 168.262 17.7404C167.848 16.9055 167.642 15.983 167.662 15.0517C167.643 14.1203 167.849 13.1978 168.262 12.3629C168.624 11.6256 169.182 11.0027 169.875 10.5614C170.601 10.113 171.442 9.88334 172.295 9.90001C173.142 9.88415 173.976 10.114 174.696 10.5614C175.395 11.0089 175.954 11.6445 176.309 12.3952C176.703 13.2233 176.898 14.1321 176.877 15.049C176.897 15.9814 176.691 16.9047 176.277 17.7404Z" fill="#003C46"/>
<path d="M197.319 14.5813C197.352 13.4722 197.169 12.3674 196.781 11.3279C196.45 10.3594 195.911 9.47562 195.2 8.73864C194.505 8.00004 193.667 7.40932 192.738 7.0017C191.772 6.57608 190.727 6.36071 189.672 6.36985C188.493 6.35775 187.322 6.58253 186.231 7.03128C185.213 7.44185 184.296 8.06752 183.542 8.86501C182.788 9.67002 182.198 10.6143 181.805 11.6452C181.372 12.7841 181.157 13.9946 181.173 15.2131C181.146 16.7498 181.527 18.2657 182.278 19.6066C183.034 20.8678 184.114 21.9038 185.405 22.6072C186.834 23.3635 188.432 23.7437 190.049 23.7123C190.849 23.7096 191.646 23.6039 192.42 23.3977C193.205 23.1907 193.966 22.9043 194.692 22.5427C195.404 22.1818 196.064 21.725 196.652 21.1849L194.725 18.4961C194.1 19.065 193.385 19.5251 192.608 19.8566C191.921 20.1153 191.192 20.2441 190.457 20.2357C189.442 20.2567 188.436 20.0405 187.519 19.6039C186.714 19.1756 186.047 18.5286 185.594 17.7379C185.29 17.1786 185.089 16.5693 185.002 15.9391H197.282L197.319 14.5813ZM187.051 10.4137C187.858 9.99052 188.761 9.78322 189.672 9.81145C190.311 9.80284 190.942 9.95529 191.506 10.2551C192.062 10.5191 192.541 10.9219 192.896 11.4247C193.259 11.9243 193.478 12.5139 193.528 13.1294V13.288H185.093C185.173 12.8949 185.301 12.5131 185.473 12.1507C185.804 11.4209 186.356 10.8133 187.051 10.4137Z" fill="#003C46"/>
<path d="M19.5551 0.537842H14.667V23.4541H19.5551V0.537842Z" fill="#0096FF"/>
<path d="M12.2202 7.55566H7.33203V23.4435H12.2202V7.55566Z" fill="#0096FF"/>
<path d="M21.9995 23.4541V4.20532H26.8877V19.8619C26.8877 20.6174 26.2128 23.2497 21.9995 23.4541Z" fill="#0096FF"/>
<path d="M4.88814 13.3711V23.4889H0V17.5575C0 17.0359 0.575392 13.5701 4.88814 13.3711Z" fill="#0096FF"/>
<path d="M197.217 3.06789H197.539V2.20749H197.728C197.97 2.20749 198.077 2.28815 198.319 2.74524L198.507 3.06789H198.911L198.669 2.66458C198.507 2.3957 198.373 2.20749 198.185 2.15372C198.341 2.15237 198.491 2.08954 198.602 1.97889C198.712 1.86828 198.775 1.71862 198.776 1.56219C198.776 1.34709 198.615 1.02444 198.104 1.02444H197.217V3.06789ZM197.539 1.91173V1.30945H198.077C198.166 1.29956 198.255 1.32499 198.326 1.38032C198.396 1.43563 198.442 1.5164 198.454 1.60521C198.454 1.82031 198.292 1.92786 198.023 1.92786H197.539V1.91173ZM199.61 2.01928C199.609 2.4398 199.442 2.84284 199.144 3.14022C198.847 3.43759 198.444 3.60483 198.023 3.60564C197.815 3.60752 197.607 3.56773 197.414 3.48841C197.221 3.40936 197.045 3.29267 196.898 3.14506C196.75 2.99745 196.633 2.82187 196.554 2.62855C196.475 2.43523 196.435 2.2282 196.437 2.01928C196.435 1.81044 196.475 1.60336 196.554 1.41009C196.633 1.2168 196.75 1.04122 196.898 0.893553C197.045 0.745887 197.221 0.629116 197.414 0.550013C197.607 0.470937 197.815 0.431117 198.023 0.432918C198.232 0.431117 198.439 0.470937 198.633 0.550013C198.826 0.629116 199.002 0.745887 199.149 0.893553C199.297 1.04122 199.414 1.2168 199.493 1.41009C199.572 1.60336 199.612 1.81044 199.61 2.01928ZM199.932 2.01928C199.932 1.76984 199.883 1.52288 199.787 1.29275C199.69 1.06262 199.549 0.853948 199.372 0.678803C199.194 0.503685 198.983 0.365619 198.752 0.272615C198.521 0.179638 198.273 0.13358 198.023 0.137156C197.524 0.137156 197.046 0.335452 196.692 0.688404C196.339 1.04138 196.141 1.52011 196.141 2.01928C196.138 2.2688 196.184 2.51643 196.277 2.74766C196.37 2.97916 196.508 3.18996 196.683 3.36742C196.858 3.54514 197.067 3.6863 197.297 3.78256C197.527 3.87882 197.774 3.92829 198.023 3.92829C198.528 3.92211 199.01 3.71884 199.366 3.36231C199.723 3.00551 199.926 2.52369 199.932 2.01928Z" fill="#003C46"/>
<path d="M152.027 36.4212C152.479 36.4212 152.882 36.5341 153.237 36.7599C153.599 36.9794 153.883 37.2891 154.089 37.6892C154.296 38.0828 154.399 38.5377 154.399 39.054C154.399 39.5702 154.296 40.0284 154.089 40.4285C153.883 40.8286 153.602 41.1415 153.247 41.3674C152.892 41.5932 152.495 41.7062 152.056 41.7062C151.695 41.7062 151.366 41.6287 151.069 41.4739C150.779 41.3125 150.55 41.1319 150.382 40.9318V41.5803H149.385V34.4466H150.382V37.2633C150.53 37.0503 150.753 36.8567 151.05 36.6825C151.347 36.5083 151.672 36.4212 152.027 36.4212ZM151.892 37.331C151.589 37.331 151.318 37.4052 151.079 37.5537C150.847 37.7021 150.663 37.9086 150.527 38.1732C150.398 38.4313 150.334 38.7249 150.334 39.054C150.334 39.3831 150.398 39.6799 150.527 39.9445C150.663 40.2026 150.847 40.4091 151.079 40.564C151.318 40.7189 151.589 40.7963 151.892 40.7963C152.195 40.7963 152.463 40.7189 152.695 40.564C152.928 40.4091 153.108 40.2026 153.237 39.9445C153.373 39.6799 153.441 39.3831 153.441 39.054C153.441 38.7249 153.373 38.4313 153.237 38.1732C153.108 37.9086 152.928 37.7021 152.695 37.5537C152.463 37.4052 152.195 37.331 151.892 37.331ZM156.096 43.8357L156.929 41.9288L156.958 41.861L154.596 36.5276H155.757L157.345 40.2639C157.364 40.3026 157.384 40.351 157.403 40.4091C157.422 40.4672 157.445 40.5317 157.471 40.6027C157.497 40.5317 157.519 40.464 157.538 40.3994C157.564 40.3285 157.59 40.2607 157.616 40.1962L158.942 36.5276H160.123L158.032 41.6094L157.171 43.8357H156.096ZM165.024 41.6094V35.8404H163.127V34.8337H168.025V35.8404H166.069V41.6094H165.024ZM171.515 39.5864V36.5276H172.512V41.6094H171.515V40.7963C171.366 41.0351 171.147 41.248 170.856 41.4351C170.572 41.6158 170.23 41.7062 169.83 41.7062C169.301 41.7062 168.872 41.5255 168.543 41.1641C168.214 40.8028 168.049 40.3026 168.049 39.6638V36.5276H169.046V39.3928C169.046 39.6509 169.085 39.8897 169.162 40.1091C169.246 40.3285 169.375 40.5059 169.55 40.6414C169.73 40.7705 169.959 40.835 170.237 40.835C170.585 40.835 170.885 40.7253 171.137 40.5059C171.389 40.2865 171.515 39.98 171.515 39.5864ZM176.707 37.6021C176.643 37.5698 176.562 37.544 176.465 37.5246C176.375 37.4988 176.278 37.4859 176.175 37.4859C175.968 37.4859 175.765 37.5408 175.565 37.6505C175.365 37.7537 175.197 37.9054 175.062 38.1054C174.933 38.299 174.868 38.5313 174.868 38.8023V41.6094H173.862V36.5276H174.868V37.4859C175.01 37.1762 175.223 36.9213 175.507 36.7212C175.797 36.5212 176.101 36.4212 176.417 36.4212C176.656 36.4212 176.84 36.4534 176.969 36.518L176.707 37.6021ZM180.379 36.4212C180.837 36.4212 181.192 36.5147 181.444 36.7019C181.695 36.889 181.87 37.1407 181.966 37.4569C182.07 37.7731 182.121 38.1248 182.121 38.5119V41.6094H181.124V38.5797C181.124 38.3345 181.092 38.1151 181.027 37.9215C180.963 37.7279 180.853 37.5763 180.698 37.4666C180.544 37.3569 180.327 37.3117 180.05 37.331C179.792 37.331 179.563 37.3859 179.363 37.4956C179.163 37.6053 179.004 37.7505 178.888 37.9312C178.772 38.1119 178.714 38.3119 178.714 38.5313V41.6094H177.717V36.5276H178.714V37.331C178.869 37.0923 179.095 36.8826 179.392 36.7019C179.688 36.5147 180.018 36.4212 180.379 36.4212ZM184.093 35.4242C183.867 35.4242 183.7 35.3661 183.59 35.2499C183.48 35.1338 183.425 34.9821 183.425 34.795C183.425 34.6337 183.48 34.4885 183.59 34.3594C183.7 34.2304 183.867 34.1658 184.093 34.1658C184.319 34.1658 184.487 34.2239 184.597 34.3401C184.706 34.4562 184.761 34.6079 184.761 34.795C184.761 34.9563 184.706 35.1015 184.597 35.2306C184.487 35.3596 184.319 35.4242 184.093 35.4242ZM184.606 41.6094H183.609V36.5276H184.606V41.6094ZM187.697 41.6094H186.7V37.4956H185.645V36.5276H186.7V35.2306H187.697V36.5276H188.878V37.4956H187.697V41.6094ZM190.405 35.4242C190.179 35.4242 190.012 35.3661 189.902 35.2499C189.792 35.1338 189.737 34.9821 189.737 34.795C189.737 34.6337 189.792 34.4885 189.902 34.3594C190.012 34.2304 190.179 34.1658 190.405 34.1658C190.631 34.1658 190.799 34.2239 190.909 34.3401C191.018 34.4562 191.073 34.6079 191.073 34.795C191.073 34.9563 191.018 35.1015 190.909 35.2306C190.799 35.3596 190.631 35.4242 190.405 35.4242ZM190.918 41.6094H189.921V36.5276H190.918V41.6094ZM195.045 36.4212C195.503 36.4212 195.858 36.5147 196.11 36.7019C196.361 36.889 196.536 37.1407 196.632 37.4569C196.736 37.7731 196.787 38.1248 196.787 38.5119V41.6094H195.79V38.5797C195.79 38.3345 195.758 38.1151 195.693 37.9215C195.629 37.7279 195.519 37.5763 195.364 37.4666C195.209 37.3569 194.993 37.3117 194.716 37.331C194.458 37.331 194.229 37.3859 194.029 37.4956C193.829 37.6053 193.67 37.7505 193.554 37.9312C193.438 38.1119 193.38 38.3119 193.38 38.5313V41.6094H192.383V36.5276H193.38V37.331C193.535 37.0923 193.761 36.8826 194.058 36.7019C194.354 36.5147 194.684 36.4212 195.045 36.4212Z" fill="#003C46"/>
</svg>
